<svg width="24" height="24" viewBox="0 0 24 24" fill="none" xmlns="http://www.w3.org/2000/svg">
<path d="M6.62022 10.79C8.06031 13.62 10.3805 15.94 13.2106 17.38L15.4108 15.18C15.6908 14.9 16.0808 14.82 16.4308 14.93C17.5509 15.3 18.751 15.5 20.001 15.5C20.2663 15.5 20.5206 15.6054 20.7082 15.7929C20.8957 15.9804 21.0011 16.2348 21.0011 16.5V20C21.0011 20.2652 20.8957 20.5196 20.7082 20.7071C20.5206 20.8946 20.2663 21 20.001 21C15.4921 21 11.1678 19.2089 7.97949 16.0208C4.79118 12.8327 3 8.50868 3 4C3 3.73478 3.10536 3.48043 3.29291 3.29289C3.48046 3.10536 3.73483 3 4.00006 3H7.50028C7.76551 3 8.01988 3.10536 8.20743 3.29289C8.39497 3.48043 8.50034 3.73478 8.50034 4C8.50034 5.25 8.70035 6.45 9.07037 7.57C9.18038 7.92 9.10037 8.31 8.82036 8.59L6.62022 10.79Z" fill="#114E85"/>
</svg>
