<svg width="24" height="24" viewBox="0 0 24 24" fill="none" xmlns="http://www.w3.org/2000/svg">
<g clip-path="url(#clip0_1_808)">
<path d="M0.557682 24C0.422908 24 0.291796 23.9467 0.194562 23.8484C0.0663802 23.7188 0.0169387 23.5305 0.0650984 23.3546L1.62543 17.657C0.654001 15.9005 0.141824 13.9135 0.142557 11.8964C0.145303 5.33661 5.48388 0 12.0435 0C15.2251 0.00128174 18.2147 1.24054 20.4617 3.48907C22.7084 5.73779 23.9451 8.72699 23.9442 11.9059C23.9413 18.4658 18.6027 23.8028 12.0435 23.8028C12.0435 23.8028 12.0385 23.8028 12.0383 23.8028C10.1224 23.8021 8.22293 23.3351 6.53167 22.4507L0.687145 23.9833C0.644296 23.9945 0.600714 24 0.557682 24Z" fill="white"/>
<path d="M0.556763 23.4962L2.17259 17.596C1.17588 15.8691 0.651617 13.9102 0.65235 11.9034C0.654913 5.62529 5.76424 0.517578 12.0426 0.517578C15.0893 0.51886 17.949 1.70465 20.0996 3.85686C22.2499 6.00908 23.4337 8.86992 23.4326 11.9126C23.4299 18.1905 18.3198 23.299 12.0426 23.299C12.0422 23.299 12.0428 23.299 12.0426 23.299H12.0376C10.1314 23.2982 8.25848 22.8201 6.59486 21.9129L0.556763 23.4962ZM6.87448 19.8516L7.22039 20.0565C8.6736 20.919 10.3398 21.3751 12.0389 21.376H12.0426C17.2603 21.376 21.5072 17.1301 21.5094 11.9118C21.5103 9.38298 20.5266 7.00499 18.7392 5.21624C16.9516 3.42748 14.5749 2.44183 12.0461 2.44073C6.82412 2.44073 2.57746 6.68602 2.57544 11.9041C2.57471 13.6924 3.07499 15.4337 4.0228 16.9406L4.24803 17.2988L3.29143 20.791L6.87448 19.8516Z" fill="white"/>
<path d="M0.955078 23.0973L2.51505 17.4011C1.55259 15.7341 1.04664 13.8428 1.04719 11.9057C1.04957 5.84491 5.98218 0.914062 12.0428 0.914062C14.9844 0.915344 17.7452 2.06012 19.8208 4.13782C21.897 6.21551 23.0397 8.97729 23.0386 11.9143C23.036 17.9753 18.1032 22.9067 12.0433 22.9067C12.0428 22.9067 12.0435 22.9067 12.0433 22.9067H12.0384C10.1983 22.9059 8.38998 22.4442 6.78404 21.5689L0.955078 23.0973Z" fill="#64B161"/>
<path d="M0.556763 23.4001L2.17259 17.5245C1.17588 15.8049 0.651617 13.8542 0.65235 11.8558C0.654913 5.60393 5.76424 0.517578 12.0426 0.517578C15.0893 0.518855 17.949 1.69968 20.0996 3.8429C22.2499 5.98611 23.4337 8.83498 23.4326 11.8649C23.4299 18.1166 18.3198 23.2037 12.0426 23.2037C12.0422 23.2037 12.0428 23.2037 12.0426 23.2037H12.0376C10.1314 23.2029 8.25848 22.7269 6.59486 21.8234L0.556763 23.4001ZM6.87448 19.7708L7.22039 19.9748C8.6736 20.8336 10.3398 21.2878 12.0389 21.2887H12.0426C17.2603 21.2887 21.5072 17.0607 21.5094 11.8642C21.5103 9.3459 20.5266 6.97786 18.7392 5.19658C16.9516 3.41531 14.5749 2.43378 12.0461 2.43269C6.82412 2.43269 2.57746 6.66022 2.57544 11.8565C2.57471 13.6372 3.07499 15.3713 4.0228 16.8719L4.24803 17.2286L3.29143 20.7062L6.87448 19.7708Z" fill="#F1F1F1"/>
<path fill-rule="evenodd" clip-rule="evenodd" d="M9.19897 7.11743C8.98582 6.64553 8.76132 6.63605 8.55842 6.62784C8.39252 6.62073 8.20263 6.6211 8.0131 6.6211C7.8234 6.6211 7.51503 6.69221 7.25427 6.97575C6.99333 7.25929 6.25793 7.94489 6.25793 9.33925C6.25793 10.7338 7.27789 12.0811 7.42017 12.2704C7.56245 12.4595 9.38904 15.4123 12.2817 16.5483C14.6859 17.4924 15.175 17.3046 15.6968 17.2574C16.2187 17.2102 17.3806 16.5718 17.6177 15.9101C17.8551 15.2484 17.8551 14.6813 17.7838 14.5626C17.7126 14.4446 17.5229 14.3737 17.2383 14.232C16.9538 14.0903 15.5546 13.4045 15.2936 13.3101C15.0327 13.2154 14.843 13.1684 14.6533 13.4521C14.4634 13.7355 13.9184 14.3737 13.7523 14.5626C13.5862 14.752 13.4202 14.7757 13.1356 14.6339C12.851 14.4918 11.9344 14.1928 10.847 13.2273C10.001 12.4762 9.42969 11.5485 9.26361 11.2648C9.0977 10.9814 9.26086 10.8414 9.38867 10.6866C9.61885 10.4078 10.005 9.90651 10.0999 9.7176C10.1948 9.52834 10.1473 9.36295 10.0763 9.22109C10.005 9.07941 9.45185 7.67794 9.19897 7.11743Z" fill="white"/>
</g>
<defs>
<clipPath id="clip0_1_808">
<rect width="24.0015" height="24" fill="white"/>
</clipPath>
</defs>
</svg>
